<svg xmlns="http://www.w3.org/2000/svg" xmlns:xlink="http://www.w3.org/1999/xlink" width="120" zoomAndPan="magnify" viewBox="0 0 90 30.000001" height="40" preserveAspectRatio="xMidYMid meet" version="1.0"><defs><g/><clipPath id="id1"><path d="M 1.453125 9 L 12 9 L 12 19 L 1.453125 19 Z M 1.453125 9 " clip-rule="nonzero"/></clipPath><clipPath id="id2"><path d="M 7 0.242188 L 20 0.242188 L 20 19 L 7 19 Z M 7 0.242188 " clip-rule="nonzero"/></clipPath><clipPath id="id3"><path d="M 19 11 L 29.03125 11 L 29.03125 20 L 19 20 Z M 19 11 " clip-rule="nonzero"/></clipPath><clipPath id="id4"><path d="M 11 11 L 24 11 L 24 29.03125 L 11 29.03125 Z M 11 11 " clip-rule="nonzero"/></clipPath></defs><g fill="#373435" fill-opacity="1"><g transform="translate(30.630889, 27.377754)"><g><path d="M 8.046875 0.28125 C 7.078125 0.28125 6.015625 0.234375 4.859375 0.140625 C 3.710938 0.046875 2.691406 -0.0703125 1.796875 -0.21875 L 1.796875 -3.0625 C 3.867188 -2.800781 5.613281 -2.671875 7.03125 -2.671875 C 7.945312 -2.671875 8.675781 -2.734375 9.21875 -2.859375 C 9.757812 -2.992188 10.1875 -3.21875 10.5 -3.53125 C 10.78125 -3.820312 10.96875 -4.226562 11.0625 -4.75 C 11.164062 -5.28125 11.21875 -5.984375 11.21875 -6.859375 C 11.21875 -8.035156 11.160156 -8.867188 11.046875 -9.359375 C 10.941406 -9.847656 10.703125 -10.191406 10.328125 -10.390625 C 9.953125 -10.597656 9.3125 -10.773438 8.40625 -10.921875 L 4.5 -11.578125 C 3.207031 -11.796875 2.347656 -12.414062 1.921875 -13.4375 C 1.503906 -14.457031 1.296875 -16 1.296875 -18.0625 C 1.296875 -20.664062 1.851562 -22.488281 2.96875 -23.53125 C 4.09375 -24.570312 5.820312 -25.09375 8.15625 -25.09375 C 9.164062 -25.09375 10.179688 -25.039062 11.203125 -24.9375 C 12.222656 -24.832031 13.046875 -24.691406 13.671875 -24.515625 L 13.671875 -21.75 C 12.128906 -22.007812 10.566406 -22.140625 8.984375 -22.140625 C 7.992188 -22.140625 7.222656 -22.066406 6.671875 -21.921875 C 6.117188 -21.773438 5.695312 -21.546875 5.40625 -21.234375 C 5.125 -20.921875 4.929688 -20.523438 4.828125 -20.046875 C 4.734375 -19.566406 4.6875 -18.929688 4.6875 -18.140625 C 4.6875 -17.128906 4.734375 -16.398438 4.828125 -15.953125 C 4.929688 -15.515625 5.117188 -15.203125 5.390625 -15.015625 C 5.671875 -14.835938 6.132812 -14.703125 6.78125 -14.609375 L 10.453125 -14 C 11.421875 -13.820312 12.195312 -13.546875 12.78125 -13.171875 C 13.375 -12.804688 13.835938 -12.191406 14.171875 -11.328125 C 14.460938 -10.503906 14.609375 -9.144531 14.609375 -7.25 C 14.609375 -5.300781 14.382812 -3.78125 13.9375 -2.6875 C 13.488281 -1.59375 12.796875 -0.820312 11.859375 -0.375 C 10.921875 0.0625 9.648438 0.28125 8.046875 0.28125 Z M 8.046875 0.28125 "/></g></g></g><g fill="#373435" fill-opacity="1"><g transform="translate(46.566171, 27.377754)"><g><path d="M 13.890625 0 L 12.375 -6.34375 L 5.375 -6.34375 L 3.890625 0 L 0.5 0 L 6.59375 -24.8125 L 11.28125 -24.8125 L 17.34375 0 Z M 8.984375 -21.125 L 8.765625 -21.125 L 6.0625 -9.265625 L 11.6875 -9.265625 Z M 8.984375 -21.125 "/></g></g></g><g fill="#373435" fill-opacity="1"><g transform="translate(64.412235, 27.377754)"><g><path d="M 2.375 0 L 2.375 -24.8125 L 5.8125 -24.8125 L 5.8125 0 Z M 2.375 0 "/></g></g></g><g fill="#373435" fill-opacity="1"><g transform="translate(72.596186, 27.377754)"><g><path d="M 8.046875 0.28125 C 7.078125 0.28125 6.015625 0.234375 4.859375 0.140625 C 3.710938 0.046875 2.691406 -0.0703125 1.796875 -0.21875 L 1.796875 -3.0625 C 3.867188 -2.800781 5.613281 -2.671875 7.03125 -2.671875 C 7.945312 -2.671875 8.675781 -2.734375 9.21875 -2.859375 C 9.757812 -2.992188 10.1875 -3.21875 10.5 -3.53125 C 10.78125 -3.820312 10.96875 -4.226562 11.0625 -4.75 C 11.164062 -5.28125 11.21875 -5.984375 11.21875 -6.859375 C 11.21875 -8.035156 11.160156 -8.867188 11.046875 -9.359375 C 10.941406 -9.847656 10.703125 -10.191406 10.328125 -10.390625 C 9.953125 -10.597656 9.3125 -10.773438 8.40625 -10.921875 L 4.5 -11.578125 C 3.207031 -11.796875 2.347656 -12.414062 1.921875 -13.4375 C 1.503906 -14.457031 1.296875 -16 1.296875 -18.0625 C 1.296875 -20.664062 1.851562 -22.488281 2.96875 -23.53125 C 4.09375 -24.570312 5.820312 -25.09375 8.15625 -25.09375 C 9.164062 -25.09375 10.179688 -25.039062 11.203125 -24.9375 C 12.222656 -24.832031 13.046875 -24.691406 13.671875 -24.515625 L 13.671875 -21.75 C 12.128906 -22.007812 10.566406 -22.140625 8.984375 -22.140625 C 7.992188 -22.140625 7.222656 -22.066406 6.671875 -21.921875 C 6.117188 -21.773438 5.695312 -21.546875 5.40625 -21.234375 C 5.125 -20.921875 4.929688 -20.523438 4.828125 -20.046875 C 4.734375 -19.566406 4.6875 -18.929688 4.6875 -18.140625 C 4.6875 -17.128906 4.734375 -16.398438 4.828125 -15.953125 C 4.929688 -15.515625 5.117188 -15.203125 5.390625 -15.015625 C 5.671875 -14.835938 6.132812 -14.703125 6.78125 -14.609375 L 10.453125 -14 C 11.421875 -13.820312 12.195312 -13.546875 12.78125 -13.171875 C 13.375 -12.804688 13.835938 -12.191406 14.171875 -11.328125 C 14.460938 -10.503906 14.609375 -9.144531 14.609375 -7.25 C 14.609375 -5.300781 14.382812 -3.78125 13.9375 -2.6875 C 13.488281 -1.59375 12.796875 -0.820312 11.859375 -0.375 C 10.921875 0.0625 9.648438 0.28125 8.046875 0.28125 Z M 8.046875 0.28125 "/></g></g></g><g clip-path="url(#id1)"><path fill="#b22d30" d="M 5.664062 9.816406 L 11.027344 9.816406 C 11.027344 14.976562 8.785156 18.078125 7.042969 18.226562 C 6.933594 18.230469 6.820312 18.234375 6.710938 18.234375 L 5.664062 18.234375 C 4.5 18.234375 3.449219 17.761719 2.683594 17 C 1.921875 16.238281 1.449219 15.1875 1.449219 14.023438 C 1.449219 11.699219 3.335938 9.816406 5.664062 9.816406 " fill-opacity="1" fill-rule="nonzero"/></g><g clip-path="url(#id2)"><path fill="#ed3237" d="M 19.457031 4.460938 L 19.457031 6.871094 C 19.457031 8.757812 18.707031 10.566406 17.371094 11.898438 L 14.082031 15.183594 C 12.207031 17.058594 9.6875 18.144531 7.042969 18.226562 C 8.785156 18.078125 11.027344 14.976562 11.027344 9.816406 L 11.027344 4.460938 C 11.027344 2.136719 12.914062 0.25 15.242188 0.25 C 17.570312 0.25 19.457031 2.136719 19.457031 4.460938 " fill-opacity="1" fill-rule="nonzero"/></g><g clip-path="url(#id3)"><path fill="#b22d30" d="M 24.820312 19.699219 L 19.457031 19.699219 C 19.457031 14.539062 21.699219 11.4375 23.441406 11.289062 C 23.550781 11.285156 23.664062 11.28125 23.773438 11.28125 L 24.820312 11.28125 C 25.984375 11.28125 27.035156 11.753906 27.796875 12.515625 C 28.5625 13.277344 29.03125 14.328125 29.03125 15.492188 C 29.03125 17.816406 27.144531 19.699219 24.820312 19.699219 " fill-opacity="1" fill-rule="nonzero"/></g><g clip-path="url(#id4)"><path fill="#ed3237" d="M 11.027344 25.054688 L 11.027344 22.644531 C 11.027344 20.757812 11.777344 18.949219 13.113281 17.617188 L 16.402344 14.332031 C 18.277344 12.457031 20.796875 11.371094 23.441406 11.289062 C 21.699219 11.4375 19.457031 14.539062 19.457031 19.699219 L 19.457031 25.054688 C 19.457031 27.378906 17.570312 29.265625 15.242188 29.265625 C 12.914062 29.265625 11.027344 27.378906 11.027344 25.054688 " fill-opacity="1" fill-rule="nonzero"/></g></svg>